<svg width="201" height="63" viewBox="0 0 201 63" fill="none" xmlns="http://www.w3.org/2000/svg">
<g clip-path="url(#clip0_31_389)">
<path d="M195.016 48.4487C192.952 48.4487 190.398 48.1065 188.949 45.4504L178.717 26.8794V44.7039C178.717 47.2774 175.809 48.4487 173.106 48.4487C170.404 48.4487 167.495 47.2774 167.495 44.7039V5.64803C167.495 3.06269 170.315 1.90389 173.106 1.90389C176.788 1.90389 178.415 2.35407 180.908 7.12914L189.409 23.2821V5.58521C189.409 3.35061 191.61 1.90389 195.016 1.90389C198.426 1.90389 200.629 3.35061 200.629 5.58521V44.7039C200.629 47.2774 197.72 48.4487 195.016 48.4487Z" fill="#006937"/>
<path d="M43.5213 13.5141C40.3463 13.5141 37.6649 11.1218 37.6649 8.29328C37.6649 5.44844 40.2917 3.132 43.5213 3.132C46.7178 3.132 49.3183 5.44844 49.3183 8.29328C49.3183 11.1218 46.6631 13.5141 43.5213 13.5141ZM43.5213 48.4487C40.4629 48.4487 37.9728 46.7682 37.9728 44.703V21.2702C37.9728 19.1019 40.2548 17.5859 43.5213 17.5859C46.7713 17.5859 49.1319 19.1348 49.1319 21.2702V44.703C49.1319 46.7336 46.562 48.4487 43.5213 48.4487Z" fill="#BF2026"/>
<path d="M16.9154 27.1069C15.0889 27.1069 13.2029 28.534 13.2029 30.9263V36.0307C13.2029 36.6883 14.8332 39.1747 17.0354 39.1747C18.9417 39.1747 20.8098 37.2224 20.8098 35.2318V30.9263C20.8098 29.1241 19.145 27.1069 16.9154 27.1069ZM7.53064 61.7962C4.50547 61.7962 2.04395 60.114 2.04395 58.0496V21.2693C2.04395 19.1339 4.30097 17.5859 7.40819 17.5859C10.0766 17.5859 12.0399 18.7456 12.4882 20.4882C14.1768 18.7447 16.7988 17.218 20.1248 17.218C26.7662 17.218 31.9687 23.2395 31.9687 30.9263V35.2318C31.9687 42.5996 26.5771 49.0636 20.434 49.0636C17.4802 49.0636 14.8855 47.6578 13.2029 45.8707V58.0496C13.2029 60.0793 10.6046 61.7962 7.53064 61.7962Z" fill="#BF2026"/>
<path d="M68.8928 48.4487C60.3381 48.4487 55.9992 44.6843 55.9992 37.2623V8.53792C55.9992 6.33647 58.8701 4.85536 61.5501 4.85536C64.3078 4.85536 67.1608 6.23338 67.1608 8.53792V17.5859H73.3369C75.3998 17.5859 76.4789 19.6866 76.4789 21.7608C76.4789 24.2205 75.1857 25.9392 73.3369 25.9392H67.1608V37.2623C67.1608 38.5447 67.3642 38.8681 68.8928 38.8681H71.547C74.8932 38.8681 76.4165 41.3528 76.4165 43.6597C76.4165 45.9667 74.8932 48.4487 71.547 48.4487H68.8928Z" fill="#BF2026"/>
<path d="M95.1321 49.0636C85.723 49.0636 80.3255 44.0232 80.3255 35.2327V31.0507C80.3255 22.389 85.8158 17.218 95.0099 17.218C101.306 17.218 106.237 19.8093 106.237 23.1168C106.237 25.2922 104.441 28.582 101.738 28.582C100.976 28.582 100.332 28.2968 99.6476 27.9946C98.7067 27.5778 97.6418 27.1069 95.8117 27.1069C92.7776 27.1069 91.4844 28.287 91.4844 31.0507V35.2327C91.4844 38.0337 92.7553 39.1747 95.8732 39.1747C97.632 39.1747 98.6139 38.67 99.4799 38.2239C100.186 37.8586 100.853 37.5138 101.738 37.5138C104.873 37.5138 106.608 40.6739 106.608 42.8591C106.608 46.2217 101.352 49.0636 95.1321 49.0636Z" fill="#BF2026"/>
<path d="M135.506 48.4487C132.748 48.4487 129.956 47.161 129.956 44.7039V30.9263C129.956 28.9641 128.183 27.1069 126.306 27.1069C124.665 27.1069 122.967 28.5358 122.967 30.9263V44.7039C122.967 46.6989 120.345 48.4487 117.356 48.4487C114.298 48.4487 111.808 46.7691 111.808 44.7039V4.539C111.808 2.37186 114.09 0.856445 117.356 0.856445C120.554 0.856445 122.967 2.43939 122.967 4.539V20.1345C124.461 18.5367 126.766 17.218 129.824 17.218C135.944 17.218 141.115 23.4972 141.115 30.9263V44.7039C141.115 47.2774 138.207 48.4487 135.506 48.4487Z" fill="#BF2026"/>
<path d="M153.72 48.4487C151.019 48.4487 148.109 47.2774 148.109 44.7039V5.58521C148.109 3.35061 150.312 1.90389 153.72 1.90389C157.128 1.90389 159.331 3.35061 159.331 5.58521V44.7039C159.331 47.2774 156.421 48.4487 153.72 48.4487Z" fill="#006937"/>
</g>
<defs>
<clipPath id="clip0_31_389">
<rect width="200.787" height="61.605" fill="white" transform="translate(0.107422 0.634766)"/>
</clipPath>
</defs>
</svg>
