<svg width="307" height="190" viewBox="0 0 307 190" fill="none" xmlns="http://www.w3.org/2000/svg">
<g clip-path="url(#clip0_1_185)">
<path d="M264.594 143.67C262.279 143.67 259.415 143.285 257.791 140.296L246.318 119.398V139.456C246.318 142.352 243.057 143.67 240.027 143.67C236.997 143.67 233.735 142.352 233.735 139.456V95.5063C233.735 92.597 236.897 91.293 240.027 91.293C244.155 91.293 245.979 91.7996 248.775 97.173L258.306 115.35V95.4356C258.306 92.921 260.775 91.293 264.594 91.293C268.417 91.293 270.887 92.921 270.887 95.4356V139.456C270.887 142.352 267.625 143.67 264.594 143.67Z" fill="white"/>
<path d="M297.479 41.2173H35.438C31.9754 41.2173 29.1687 38.4093 29.1687 34.948C29.1687 31.4853 31.9754 28.6786 35.438 28.6786H297.479C300.941 28.6786 303.749 31.4853 303.749 34.948C303.749 38.4093 300.941 41.2173 297.479 41.2173Z" fill="white"/>
<path d="M94.7291 104.358C91.1691 104.358 88.1625 101.666 88.1625 98.483C88.1625 95.2817 91.1078 92.675 94.7291 92.675C98.3131 92.675 101.229 95.2817 101.229 98.483C101.229 101.666 98.2518 104.358 94.7291 104.358ZM94.7291 143.67C91.2998 143.67 88.5078 141.779 88.5078 139.455V113.086C88.5078 110.646 91.0665 108.94 94.7291 108.94C98.3731 108.94 101.02 110.683 101.02 113.086V139.455C101.02 141.74 98.1385 143.67 94.7291 143.67Z" fill="white"/>
<path d="M64.897 119.654C62.849 119.654 60.7343 121.26 60.7343 123.952V129.696C60.7343 130.436 62.5623 133.234 65.0316 133.234C67.169 133.234 69.2636 131.037 69.2636 128.797V123.952C69.2636 121.924 67.397 119.654 64.897 119.654ZM54.3743 158.69C50.9823 158.69 48.2223 156.797 48.2223 154.474V113.085C48.2223 110.682 50.753 108.94 54.237 108.94C57.229 108.94 59.4303 110.245 59.933 112.206C61.8263 110.244 64.7663 108.526 68.4956 108.526C75.9423 108.526 81.7756 115.302 81.7756 123.952V128.797C81.7756 137.088 75.7303 144.362 68.8423 144.362C65.5303 144.362 62.621 142.78 60.7343 140.769V154.474C60.7343 156.758 57.821 158.69 54.3743 158.69" fill="white"/>
<path d="M123.177 143.67C113.585 143.67 108.72 139.434 108.72 131.082V98.7583C108.72 96.281 111.939 94.6143 114.944 94.6143C118.036 94.6143 121.235 96.165 121.235 98.7583V108.94H128.16C130.473 108.94 131.683 111.304 131.683 113.638C131.683 116.406 130.233 118.34 128.16 118.34H121.235V131.082C121.235 132.525 121.463 132.889 123.177 132.889H126.153C129.905 132.889 131.613 135.685 131.613 138.281C131.613 140.877 129.905 143.67 126.153 143.67H123.177Z" fill="white"/>
<path d="M152.598 144.362C142.048 144.362 135.996 138.69 135.996 128.798V124.092C135.996 114.345 142.152 108.526 152.461 108.526C159.52 108.526 165.049 111.442 165.049 115.164C165.049 117.612 163.036 121.314 160.005 121.314C159.15 121.314 158.428 120.993 157.661 120.653C156.606 120.184 155.412 119.654 153.36 119.654C149.958 119.654 148.508 120.982 148.508 124.092V128.798C148.508 131.95 149.933 133.234 153.429 133.234C155.401 133.234 156.502 132.666 157.473 132.164C158.265 131.753 159.013 131.365 160.005 131.365C163.52 131.365 165.465 134.921 165.465 137.38C165.465 141.164 159.572 144.362 152.598 144.362Z" fill="white"/>
<path d="M197.867 143.67C194.775 143.67 191.644 142.221 191.644 139.456V123.952C191.644 121.744 189.657 119.654 187.552 119.654C185.712 119.654 183.808 121.262 183.808 123.952V139.456C183.808 141.701 180.868 143.67 177.517 143.67C174.088 143.67 171.296 141.78 171.296 139.456V94.2583C171.296 91.8196 173.855 90.1143 177.517 90.1143C181.103 90.1143 183.808 91.8956 183.808 94.2583V111.808C185.483 110.01 188.068 108.526 191.497 108.526C198.359 108.526 204.157 115.592 204.157 123.952V139.456C204.157 142.352 200.896 143.67 197.867 143.67Z" fill="white"/>
<path d="M218.29 143.67C215.261 143.67 211.999 142.352 211.999 139.456V95.4356C211.999 92.921 214.469 91.293 218.29 91.293C222.111 91.293 224.581 92.921 224.581 95.4356V139.456C224.581 142.352 221.319 143.67 218.29 143.67Z" fill="white"/>
<path d="M38.4517 70.724C33.0224 70.724 19.7051 69.752 10.1944 60.9733C3.51708 54.808 0.105076 46.28 0.0504093 35.62C-0.112257 33.1827 -0.378924 21.6533 8.08774 12.2333C15.3851 4.11466 26.7371 -2.10774e-06 41.8291 -2.10774e-06H300.614C304.306 -2.10774e-06 307.298 2.992 307.298 6.684C307.298 10.3747 304.306 13.368 300.614 13.368H41.8291C30.7784 13.368 22.8104 15.9533 18.1397 21.0493C12.7717 26.9107 13.3797 34.632 13.3864 34.7093C13.4037 34.904 13.4184 35.1653 13.4184 35.36C13.4184 42.3533 15.3317 47.5187 19.2637 51.1507C26.8451 58.1467 39.6877 57.332 39.8091 57.3213C39.9864 57.3067 40.1651 57.3 40.3424 57.3H300.614C304.306 57.3 307.298 60.2933 307.298 63.984C307.298 67.676 304.306 70.668 300.614 70.668H40.5597C40.1637 70.692 39.4371 70.724 38.4517 70.724Z" fill="white"/>
<path d="M300.615 190.032H79.624C50.1893 190.032 28.324 182.338 14.6373 167.162C-1.02266 149.802 -0.099995 128.84 0.152005 125.579V36.2898C0.152005 32.5978 3.14401 29.6058 6.83601 29.6058C10.5267 29.6058 13.52 32.5978 13.52 36.2898V125.862C13.52 126.091 13.508 126.32 13.4853 126.548C13.4707 126.696 11.9733 144.38 24.696 158.354C35.7587 170.504 54.2387 176.664 79.624 176.664H293.931V66.7405C293.931 63.0498 296.923 60.0565 300.615 60.0565C304.307 60.0565 307.299 63.0498 307.299 66.7405V183.348C307.299 187.04 304.307 190.032 300.615 190.032Z" fill="white"/>
</g>
<defs>
<clipPath id="clip0_1_185">
<rect width="307" height="190" fill="white"/>
</clipPath>
</defs>
</svg>
